<svg width="15" height="20" viewBox="0 0 15 20" fill="none" xmlns="http://www.w3.org/2000/svg">
<path d="M4.78216 1.89036C5.20437 1.89036 5.54664 2.26723 5.54664 2.73211V6.66054C5.54664 7.41213 5.69291 7.72975 5.98545 8.17457C6.29191 8.60405 6.77948 8.81879 7.44813 8.81879C8.11679 8.81879 8.61132 8.60405 8.93172 8.17457C9.25212 7.72975 9.41232 7.41213 9.41232 6.66054V2.73211C9.41232 2.26723 9.75459 1.89036 10.1768 1.89036L13.2658 0.857422C13.688 0.857422 14.0302 1.23429 14.0302 1.69917V6.66054C14.0302 8.20973 13.7377 9.25594 13.1526 10.3603C12.5676 11.4494 11.7666 12.27 10.7496 12.8222C9.73272 13.3744 8.59739 13.6504 7.34366 13.6504C6.08992 13.6504 4.97549 13.3744 4.00036 12.8222C3.03916 12.27 2.28692 11.4494 1.74364 10.3603C1.20035 9.27128 0.928711 8.22507 0.928711 6.66054V1.69918C0.928711 1.23429 1.27098 0.857422 1.69318 0.857422L4.78216 1.89036Z" fill="white"/>
<path d="M5.17364 14.6371L4.22255 14.2762C4.09405 14.2275 3.95908 14.2026 3.82317 14.2026C2.58093 14.2026 2.12669 16.0031 3.19095 16.7086L6.27771 18.7547C6.97868 19.2194 7.85464 19.2233 8.55902 18.7649L11.7692 16.6759C12.8268 15.9877 12.3835 14.2026 11.155 14.2026C11.0206 14.2026 10.8872 14.2273 10.7602 14.2757L9.82088 14.6337C8.31578 15.2073 6.67944 15.2085 5.17364 14.6371Z" fill="#CA0016"/>
</svg>
