<svg width="320" height="170" viewBox="0 0 320 170" fill="none" xmlns="http://www.w3.org/2000/svg">
<g clip-path="url(#clip0_992_10814)">
<rect width="320" height="170" rx="20" fill="#F7F7F7"/>
<path d="M36 36C36 29.3726 41.3726 24 48 24H217C223.627 24 229 29.3726 229 36V50C229 56.6274 223.627 62 217 62H48C41.3726 62 36 56.6274 36 50V36Z" fill="white"/>
<path d="M48 24.5H217C223.351 24.5 228.5 29.6487 228.5 36V50C228.5 56.3513 223.351 61.5 217 61.5H48C41.6487 61.5 36.5 56.3513 36.5 50V36C36.5 29.6487 41.6487 24.5 48 24.5Z" stroke="black" stroke-opacity="0.05"/>
<path d="M51.0824 48L48.2983 37.8182H49.5511L51.679 46.1108H51.7784L53.946 37.8182H55.3381L57.5057 46.1108H57.6051L59.733 37.8182H60.9858L58.2017 48H56.929L54.6818 39.8864H54.6023L52.3551 48H51.0824ZM65.1337 48.1591C64.3979 48.1591 63.7632 47.9967 63.2296 47.6719C62.6993 47.3438 62.2899 46.8864 62.0016 46.2997C61.7166 45.7098 61.574 45.0237 61.574 44.2415C61.574 43.4593 61.7166 42.7699 62.0016 42.1733C62.2899 41.5734 62.691 41.1061 63.2047 40.7713C63.7218 40.4332 64.325 40.2642 65.0144 40.2642C65.4121 40.2642 65.8049 40.3305 66.1926 40.4631C66.5804 40.5956 66.9334 40.8111 67.2516 41.1094C67.5698 41.4044 67.8233 41.7955 68.0122 42.2827C68.2012 42.7699 68.2956 43.3698 68.2956 44.0824V44.5795H62.4093V43.5653H67.1024C67.1024 43.1345 67.0163 42.75 66.8439 42.4119C66.6749 42.0739 66.4329 41.8071 66.1181 41.6115C65.8065 41.416 65.4386 41.3182 65.0144 41.3182C64.547 41.3182 64.1427 41.4342 63.8013 41.6662C63.4632 41.8949 63.2031 42.1932 63.0208 42.5611C62.8385 42.929 62.7473 43.3234 62.7473 43.7443V44.4205C62.7473 44.9972 62.8468 45.486 63.0456 45.8871C63.2478 46.2848 63.5279 46.5881 63.8858 46.7969C64.2438 47.0024 64.6597 47.1051 65.1337 47.1051C65.4419 47.1051 65.7203 47.062 65.9689 46.9759C66.2208 46.8864 66.4379 46.7538 66.6202 46.5781C66.8025 46.3991 66.9434 46.1771 67.0428 45.9119L68.1763 46.2301C68.057 46.6146 67.8565 46.9527 67.5747 47.2443C67.293 47.5327 66.945 47.758 66.5307 47.9205C66.1164 48.0795 65.6507 48.1591 65.1337 48.1591ZM70.3604 48V40.3636H71.5337V48H70.3604ZM70.957 39.0909C70.7283 39.0909 70.5311 39.013 70.3654 38.8572C70.203 38.7015 70.1218 38.5142 70.1218 38.2955C70.1218 38.0767 70.203 37.8894 70.3654 37.7337C70.5311 37.5779 70.7283 37.5 70.957 37.5C71.1857 37.5 71.3813 37.5779 71.5437 37.7337C71.7094 37.8894 71.7922 38.0767 71.7922 38.2955C71.7922 38.5142 71.7094 38.7015 71.5437 38.8572C71.3813 39.013 71.1857 39.0909 70.957 39.0909ZM77.0451 51.0227C76.4783 51.0227 75.9911 50.9498 75.5834 50.804C75.1758 50.6615 74.836 50.4725 74.5643 50.2372C74.2958 50.0052 74.082 49.7566 73.9229 49.4915L74.8576 48.8352C74.9636 48.9744 75.0979 49.1335 75.2603 49.3125C75.4227 49.4948 75.6447 49.6522 75.9265 49.7848C76.2115 49.9207 76.5844 49.9886 77.0451 49.9886C77.6616 49.9886 78.1703 49.8395 78.5714 49.5412C78.9724 49.2429 79.1729 48.7756 79.1729 48.1392V46.5881H79.0735C78.9873 46.7273 78.8647 46.8996 78.7056 47.1051C78.5498 47.3073 78.3244 47.4879 78.0295 47.647C77.7378 47.8028 77.3434 47.8807 76.8462 47.8807C76.2297 47.8807 75.6762 47.7348 75.1857 47.4432C74.6985 47.1515 74.3124 46.7273 74.0273 46.1705C73.7456 45.6136 73.6047 44.9375 73.6047 44.142C73.6047 43.3598 73.7423 42.6787 74.0174 42.0987C74.2925 41.5154 74.6753 41.0646 75.1658 40.7464C75.6563 40.425 76.2231 40.2642 76.8661 40.2642C77.3633 40.2642 77.7577 40.3471 78.0493 40.5128C78.3443 40.6752 78.5697 40.8608 78.7255 41.0696C78.8846 41.2751 79.0072 41.4441 79.0934 41.5767H79.2127V40.3636H80.3462V48.2188C80.3462 48.875 80.1971 49.4086 79.8988 49.8196C79.6038 50.2339 79.2061 50.5372 78.7056 50.7294C78.2084 50.925 77.6549 51.0227 77.0451 51.0227ZM77.0053 46.8267C77.4759 46.8267 77.8737 46.719 78.1985 46.5036C78.5233 46.2881 78.7702 45.9782 78.9393 45.5739C79.1083 45.1695 79.1928 44.6856 79.1928 44.1222C79.1928 43.572 79.1099 43.0864 78.9442 42.6655C78.7785 42.2446 78.5332 41.9148 78.2084 41.6761C77.8836 41.4375 77.4826 41.3182 77.0053 41.3182C76.5081 41.3182 76.0938 41.4441 75.7624 41.696C75.4343 41.9479 75.1874 42.286 75.0216 42.7102C74.8592 43.1345 74.778 43.6051 74.778 44.1222C74.778 44.6525 74.8609 45.1214 75.0266 45.5291C75.1956 45.9335 75.4442 46.2517 75.7724 46.4837C76.1038 46.7124 76.5148 46.8267 77.0053 46.8267ZM83.9472 43.4062V48H82.7739V37.8182H83.9472V41.5568H84.0467C84.2256 41.1624 84.4941 40.8492 84.8521 40.6172C85.2133 40.3819 85.6939 40.2642 86.2938 40.2642C86.8142 40.2642 87.2699 40.3686 87.661 40.5774C88.0521 40.7829 88.3554 41.0994 88.5708 41.527C88.7896 41.9512 88.8989 42.4915 88.8989 43.1477V48H87.7256V43.2273C87.7256 42.6207 87.5682 42.1518 87.2533 41.8203C86.9418 41.4856 86.5093 41.3182 85.9558 41.3182C85.5713 41.3182 85.2266 41.3994 84.9217 41.5618C84.6201 41.7242 84.3814 41.9612 84.2058 42.2727C84.0334 42.5843 83.9472 42.9621 83.9472 43.4062ZM94.6465 40.3636V41.358H90.6891V40.3636H94.6465ZM91.8425 38.5341H93.0158V45.8125C93.0158 46.1439 93.0638 46.3925 93.1599 46.5582C93.2594 46.7206 93.3853 46.83 93.5378 46.8864C93.6936 46.9394 93.8576 46.9659 94.03 46.9659C94.1592 46.9659 94.2653 46.9593 94.3482 46.946C94.431 46.9295 94.4973 46.9162 94.547 46.9062L94.7857 47.9602C94.7061 47.9901 94.5951 48.0199 94.4526 48.0497C94.31 48.0829 94.1294 48.0994 93.9107 48.0994C93.5792 48.0994 93.2544 48.0282 92.9362 47.8857C92.6214 47.7431 92.3595 47.526 92.1507 47.2344C91.9452 46.9427 91.8425 46.5748 91.8425 46.1307V38.5341ZM97.5465 48.0795C97.3012 48.0795 97.0907 47.9917 96.9151 47.8161C96.7394 47.6404 96.6516 47.4299 96.6516 47.1847C96.6516 46.9394 96.7394 46.7289 96.9151 46.5533C97.0907 46.3776 97.3012 46.2898 97.5465 46.2898C97.7917 46.2898 98.0022 46.3776 98.1779 46.5533C98.3535 46.7289 98.4414 46.9394 98.4414 47.1847C98.4414 47.3471 98.3999 47.4962 98.3171 47.6321C98.2375 47.768 98.1298 47.8774 97.9939 47.9602C97.8613 48.0398 97.7122 48.0795 97.5465 48.0795ZM97.5465 42.4119C97.3012 42.4119 97.0907 42.3241 96.9151 42.1484C96.7394 41.9728 96.6516 41.7623 96.6516 41.517C96.6516 41.2718 96.7394 41.0613 96.9151 40.8857C97.0907 40.71 97.3012 40.6222 97.5465 40.6222C97.7917 40.6222 98.0022 40.71 98.1779 40.8857C98.3535 41.0613 98.4414 41.2718 98.4414 41.517C98.4414 41.6795 98.3999 41.8286 98.3171 41.9645C98.2375 42.1004 98.1298 42.2098 97.9939 42.2926C97.8613 42.3722 97.7122 42.4119 97.5465 42.4119Z" fill="#A3A3A3"/>
<path d="M111.409 49V37.3636H115.341C116.25 37.3636 116.996 37.5189 117.58 37.8295C118.163 38.1364 118.595 38.5587 118.875 39.0966C119.155 39.6345 119.295 40.2462 119.295 40.9318C119.295 41.6174 119.155 42.2254 118.875 42.7557C118.595 43.286 118.165 43.7027 117.585 44.0057C117.006 44.3049 116.265 44.4545 115.364 44.4545H112.182V43.1818H115.318C115.939 43.1818 116.439 43.0909 116.818 42.9091C117.201 42.7273 117.477 42.4697 117.648 42.1364C117.822 41.7992 117.909 41.3977 117.909 40.9318C117.909 40.4659 117.822 40.0587 117.648 39.7102C117.473 39.3617 117.195 39.0928 116.812 38.9034C116.43 38.7102 115.924 38.6136 115.295 38.6136H112.818V49H111.409ZM116.886 43.7727L119.75 49H118.114L115.295 43.7727H116.886ZM125.347 49.1818C124.506 49.1818 123.781 48.9962 123.171 48.625C122.565 48.25 122.097 47.7273 121.767 47.0568C121.442 46.3826 121.279 45.5985 121.279 44.7045C121.279 43.8106 121.442 43.0227 121.767 42.3409C122.097 41.6553 122.555 41.1212 123.142 40.7386C123.733 40.3523 124.423 40.1591 125.211 40.1591C125.665 40.1591 126.114 40.2348 126.557 40.3864C127 40.5379 127.404 40.7841 127.767 41.125C128.131 41.4621 128.421 41.9091 128.637 42.4659C128.853 43.0227 128.961 43.7083 128.961 44.5227V45.0909H122.233V43.9318H127.597C127.597 43.4394 127.499 43 127.302 42.6136C127.108 42.2273 126.832 41.9223 126.472 41.6989C126.116 41.4754 125.695 41.3636 125.211 41.3636C124.677 41.3636 124.214 41.4962 123.824 41.7614C123.438 42.0227 123.141 42.3636 122.932 42.7841C122.724 43.2045 122.62 43.6553 122.62 44.1364V44.9091C122.62 45.5682 122.733 46.1269 122.961 46.5852C123.192 47.0398 123.512 47.3864 123.921 47.625C124.33 47.8598 124.805 47.9773 125.347 47.9773C125.699 47.9773 126.017 47.928 126.302 47.8295C126.589 47.7273 126.838 47.5758 127.046 47.375C127.254 47.1705 127.415 46.9167 127.529 46.6136L128.824 46.9773C128.688 47.4167 128.459 47.803 128.137 48.1364C127.815 48.4659 127.417 48.7235 126.944 48.9091C126.47 49.0909 125.938 49.1818 125.347 49.1818ZM134.843 52.4545C134.195 52.4545 133.639 52.3712 133.173 52.2045C132.707 52.0417 132.319 51.8258 132.008 51.5568C131.701 51.2917 131.457 51.0076 131.275 50.7045L132.343 49.9545C132.464 50.1136 132.618 50.2955 132.803 50.5C132.989 50.7083 133.243 50.8883 133.565 51.0398C133.89 51.1951 134.317 51.2727 134.843 51.2727C135.548 51.2727 136.129 51.1023 136.587 50.7614C137.046 50.4205 137.275 49.8864 137.275 49.1591V47.3864H137.161C137.063 47.5455 136.923 47.7424 136.741 47.9773C136.563 48.2083 136.305 48.4148 135.968 48.5966C135.635 48.7746 135.184 48.8636 134.616 48.8636C133.911 48.8636 133.279 48.697 132.718 48.3636C132.161 48.0303 131.72 47.5455 131.394 46.9091C131.072 46.2727 130.911 45.5 130.911 44.5909C130.911 43.697 131.069 42.9186 131.383 42.2557C131.697 41.589 132.135 41.0739 132.695 40.7102C133.256 40.3428 133.904 40.1591 134.639 40.1591C135.207 40.1591 135.658 40.2538 135.991 40.4432C136.328 40.6288 136.586 40.8409 136.764 41.0795C136.945 41.3144 137.086 41.5076 137.184 41.6591H137.32V40.2727H138.616V49.25C138.616 50 138.445 50.6098 138.104 51.0795C137.767 51.553 137.313 51.8996 136.741 52.1193C136.173 52.3428 135.54 52.4545 134.843 52.4545ZM134.798 47.6591C135.336 47.6591 135.79 47.536 136.161 47.2898C136.533 47.0436 136.815 46.6894 137.008 46.2273C137.201 45.7652 137.298 45.2121 137.298 44.5682C137.298 43.9394 137.203 43.3845 137.014 42.9034C136.824 42.4223 136.544 42.0455 136.173 41.7727C135.801 41.5 135.343 41.3636 134.798 41.3636C134.229 41.3636 133.756 41.5076 133.377 41.7955C133.002 42.0833 132.72 42.4697 132.531 42.9545C132.345 43.4394 132.252 43.9773 132.252 44.5682C132.252 45.1742 132.347 45.7102 132.536 46.1761C132.729 46.6383 133.014 47.0019 133.389 47.267C133.767 47.5284 134.237 47.6591 134.798 47.6591ZM146.89 45.4318V40.2727H148.231V49H146.89V47.5227H146.799C146.595 47.9659 146.277 48.3428 145.845 48.6534C145.413 48.9602 144.868 49.1136 144.209 49.1136C143.663 49.1136 143.178 48.9943 142.754 48.7557C142.33 48.5133 141.996 48.1496 141.754 47.6648C141.512 47.1761 141.39 46.5606 141.39 45.8182V40.2727H142.731V45.7273C142.731 46.3636 142.909 46.8712 143.265 47.25C143.625 47.6288 144.084 47.8182 144.64 47.8182C144.974 47.8182 145.313 47.733 145.657 47.5625C146.006 47.392 146.298 47.1307 146.532 46.7784C146.771 46.4261 146.89 45.9773 146.89 45.4318ZM152.348 37.3636V49H151.007V37.3636H152.348ZM157.692 49.2045C157.139 49.2045 156.637 49.1004 156.187 48.892C155.736 48.6799 155.378 48.375 155.113 47.9773C154.848 47.5758 154.715 47.0909 154.715 46.5227C154.715 46.0227 154.814 45.6174 155.011 45.3068C155.207 44.9924 155.471 44.7462 155.8 44.5682C156.13 44.3902 156.493 44.2576 156.891 44.1705C157.293 44.0795 157.696 44.0076 158.101 43.9545C158.632 43.8864 159.062 43.8352 159.391 43.8011C159.725 43.7633 159.967 43.7008 160.118 43.6136C160.274 43.5265 160.351 43.375 160.351 43.1591V43.1136C160.351 42.553 160.198 42.1174 159.891 41.8068C159.588 41.4962 159.128 41.3409 158.511 41.3409C157.87 41.3409 157.368 41.4811 157.005 41.7614C156.641 42.0417 156.386 42.3409 156.238 42.6591L154.965 42.2045C155.192 41.6742 155.495 41.2614 155.874 40.9659C156.257 40.6667 156.673 40.4583 157.124 40.3409C157.579 40.2197 158.026 40.1591 158.465 40.1591C158.745 40.1591 159.067 40.1932 159.431 40.2614C159.798 40.3258 160.153 40.4602 160.493 40.6648C160.838 40.8693 161.124 41.178 161.351 41.5909C161.579 42.0038 161.692 42.5568 161.692 43.25V49H160.351V47.8182H160.283C160.192 48.0076 160.041 48.2102 159.829 48.4261C159.617 48.642 159.334 48.8258 158.982 48.9773C158.63 49.1288 158.2 49.2045 157.692 49.2045ZM157.897 48C158.427 48 158.874 47.8958 159.238 47.6875C159.605 47.4792 159.882 47.2102 160.067 46.8807C160.257 46.5511 160.351 46.2045 160.351 45.8409V44.6136C160.295 44.6818 160.17 44.7443 159.976 44.8011C159.787 44.8542 159.567 44.9015 159.317 44.9432C159.071 44.9811 158.831 45.0152 158.596 45.0455C158.365 45.072 158.177 45.0947 158.033 45.1136C157.685 45.1591 157.359 45.233 157.056 45.3352C156.757 45.4337 156.514 45.5833 156.329 45.7841C156.147 45.9811 156.056 46.25 156.056 46.5909C156.056 47.0568 156.228 47.4091 156.573 47.6477C156.921 47.8826 157.363 48 157.897 48ZM164.46 49V40.2727H165.755V41.5909H165.846C166.005 41.1591 166.293 40.8087 166.71 40.5398C167.126 40.2708 167.596 40.1364 168.119 40.1364C168.217 40.1364 168.34 40.1383 168.488 40.142C168.636 40.1458 168.748 40.1515 168.823 40.1591V41.5227C168.778 41.5114 168.674 41.4943 168.511 41.4716C168.352 41.4451 168.183 41.4318 168.005 41.4318C167.581 41.4318 167.202 41.5208 166.869 41.6989C166.539 41.8731 166.278 42.1155 166.085 42.4261C165.895 42.733 165.801 43.0833 165.801 43.4773V49H164.46ZM179.667 36.8182L175.917 50.75H174.689L178.439 36.8182H179.667ZM186.101 46.6136V45.4545L191.214 37.3636H192.055V39.1591H191.487L187.623 45.2727V45.3636H194.51V46.6136H186.101ZM191.578 49V46.2614V45.7216V37.3636H192.919V49H191.578ZM200.754 49.1591C199.898 49.1591 199.169 48.9261 198.567 48.4602C197.965 47.9905 197.504 47.3106 197.186 46.4205C196.868 45.5265 196.709 44.447 196.709 43.1818C196.709 41.9242 196.868 40.8504 197.186 39.9602C197.508 39.0663 197.97 38.3845 198.573 37.9148C199.179 37.4413 199.906 37.2045 200.754 37.2045C201.603 37.2045 202.328 37.4413 202.931 37.9148C203.537 38.3845 203.999 39.0663 204.317 39.9602C204.639 40.8504 204.8 41.9242 204.8 43.1818C204.8 44.447 204.641 45.5265 204.323 46.4205C204.004 47.3106 203.544 47.9905 202.942 48.4602C202.34 48.9261 201.61 49.1591 200.754 49.1591ZM200.754 47.9091C201.603 47.9091 202.262 47.5 202.732 46.6818C203.201 45.8636 203.436 44.697 203.436 43.1818C203.436 42.1742 203.328 41.3163 203.112 40.608C202.9 39.8996 202.593 39.3598 202.192 38.9886C201.794 38.6174 201.315 38.4318 200.754 38.4318C199.913 38.4318 199.256 38.8466 198.783 39.6761C198.309 40.5019 198.073 41.6705 198.073 43.1818C198.073 44.1894 198.179 45.0455 198.391 45.75C198.603 46.4545 198.908 46.9905 199.306 47.358C199.707 47.7254 200.19 47.9091 200.754 47.9091ZM211.074 49.1591C210.218 49.1591 209.489 48.9261 208.887 48.4602C208.285 47.9905 207.824 47.3106 207.506 46.4205C207.188 45.5265 207.029 44.447 207.029 43.1818C207.029 41.9242 207.188 40.8504 207.506 39.9602C207.828 39.0663 208.29 38.3845 208.893 37.9148C209.499 37.4413 210.226 37.2045 211.074 37.2045C211.923 37.2045 212.648 37.4413 213.251 37.9148C213.857 38.3845 214.319 39.0663 214.637 39.9602C214.959 40.8504 215.12 41.9242 215.12 43.1818C215.12 44.447 214.961 45.5265 214.643 46.4205C214.324 47.3106 213.864 47.9905 213.262 48.4602C212.66 48.9261 211.93 49.1591 211.074 49.1591ZM211.074 47.9091C211.923 47.9091 212.582 47.5 213.052 46.6818C213.521 45.8636 213.756 44.697 213.756 43.1818C213.756 42.1742 213.648 41.3163 213.432 40.608C213.22 39.8996 212.913 39.3598 212.512 38.9886C212.114 38.6174 211.635 38.4318 211.074 38.4318C210.233 38.4318 209.576 38.8466 209.103 39.6761C208.629 40.5019 208.393 41.6705 208.393 43.1818C208.393 44.1894 208.499 45.0455 208.711 45.75C208.923 46.4545 209.228 46.9905 209.626 47.358C210.027 47.7254 210.51 47.9091 211.074 47.9091Z" fill="#5C5C5C"/>
<path d="M241 36C241 29.3726 246.373 24 253 24H350C356.627 24 362 29.3726 362 36V50C362 56.6274 356.627 62 350 62H253C246.373 62 241 56.6274 241 50V36Z" fill="white"/>
<path d="M253 24.5H350C356.351 24.5 361.5 29.6487 361.5 36V50C361.5 56.3513 356.351 61.5 350 61.5H253C246.649 61.5 241.5 56.3513 241.5 50V36C241.5 29.6487 246.649 24.5 253 24.5Z" stroke="black" stroke-opacity="0.05"/>
<path d="M254.233 48V37.8182H260.338V38.9119H255.466V42.3523H259.881V43.446H255.466V48H254.233ZM265.112 48.1591C264.423 48.1591 263.818 47.995 263.298 47.6669C262.781 47.3388 262.376 46.8797 262.085 46.2898C261.796 45.6998 261.652 45.0104 261.652 44.2216C261.652 43.4261 261.796 42.7318 262.085 42.1385C262.376 41.5452 262.781 41.0845 263.298 40.7564C263.818 40.4283 264.423 40.2642 265.112 40.2642C265.802 40.2642 266.405 40.4283 266.922 40.7564C267.442 41.0845 267.847 41.5452 268.135 42.1385C268.427 42.7318 268.573 43.4261 268.573 44.2216C268.573 45.0104 268.427 45.6998 268.135 46.2898C267.847 46.8797 267.442 47.3388 266.922 47.6669C266.405 47.995 265.802 48.1591 265.112 48.1591ZM265.112 47.1051C265.636 47.1051 266.067 46.9709 266.405 46.7024C266.743 46.4339 266.993 46.081 267.156 45.6435C267.318 45.206 267.399 44.732 267.399 44.2216C267.399 43.7112 267.318 43.2356 267.156 42.7947C266.993 42.3539 266.743 41.9976 266.405 41.7259C266.067 41.4541 265.636 41.3182 265.112 41.3182C264.589 41.3182 264.158 41.4541 263.82 41.7259C263.482 41.9976 263.231 42.3539 263.069 42.7947C262.907 43.2356 262.825 43.7112 262.825 44.2216C262.825 44.732 262.907 45.206 263.069 45.6435C263.231 46.081 263.482 46.4339 263.82 46.7024C264.158 46.9709 264.589 47.1051 265.112 47.1051ZM271.817 43.4062V48H270.644V40.3636H271.777V41.5568H271.877C272.056 41.169 272.327 40.8575 272.692 40.6222C273.057 40.3835 273.527 40.2642 274.104 40.2642C274.621 40.2642 275.073 40.3703 275.461 40.5824C275.849 40.7912 276.15 41.1094 276.366 41.5369C276.581 41.9612 276.689 42.4981 276.689 43.1477V48H275.516V43.2273C275.516 42.6274 275.36 42.16 275.048 41.8253C274.737 41.4872 274.309 41.3182 273.766 41.3182C273.391 41.3182 273.057 41.3994 272.762 41.5618C272.47 41.7242 272.24 41.9612 272.07 42.2727C271.901 42.5843 271.817 42.9621 271.817 43.4062ZM282.434 40.3636V41.358H278.477V40.3636H282.434ZM279.63 38.5341H280.803V45.8125C280.803 46.1439 280.851 46.3925 280.948 46.5582C281.047 46.7206 281.173 46.83 281.325 46.8864C281.481 46.9394 281.645 46.9659 281.818 46.9659C281.947 46.9659 282.053 46.9593 282.136 46.946C282.219 46.9295 282.285 46.9162 282.335 46.9062L282.573 47.9602C282.494 47.9901 282.383 48.0199 282.24 48.0497C282.098 48.0829 281.917 48.0994 281.698 48.0994C281.367 48.0994 281.042 48.0282 280.724 47.8857C280.409 47.7431 280.147 47.526 279.938 47.2344C279.733 46.9427 279.63 46.5748 279.63 46.1307V38.5341ZM294.106 42.0739L293.052 42.3722C292.985 42.1965 292.888 42.0258 292.758 41.8601C292.632 41.6911 292.46 41.5518 292.241 41.4425C292.023 41.3331 291.742 41.2784 291.401 41.2784C290.934 41.2784 290.544 41.3861 290.233 41.6016C289.925 41.8137 289.77 42.0838 289.77 42.4119C289.77 42.7036 289.876 42.9339 290.089 43.103C290.301 43.272 290.632 43.4129 291.083 43.5256L292.216 43.804C292.899 43.9697 293.408 44.2232 293.743 44.5646C294.077 44.9027 294.245 45.3385 294.245 45.8722C294.245 46.3097 294.119 46.7008 293.867 47.0455C293.618 47.3902 293.27 47.6619 292.823 47.8608C292.375 48.0597 291.855 48.1591 291.262 48.1591C290.483 48.1591 289.838 47.9901 289.328 47.652C288.817 47.3139 288.494 46.8201 288.358 46.1705L289.472 45.892C289.578 46.303 289.779 46.6113 290.074 46.8168C290.372 47.0223 290.761 47.125 291.242 47.125C291.789 47.125 292.223 47.009 292.545 46.777C292.869 46.5417 293.032 46.2599 293.032 45.9318C293.032 45.6667 292.939 45.4446 292.753 45.2656C292.568 45.0833 292.283 44.9474 291.898 44.858L290.625 44.5597C289.926 44.3939 289.412 44.1371 289.084 43.7891C288.759 43.4377 288.597 42.9986 288.597 42.4716C288.597 42.0407 288.718 41.6596 288.96 41.3281C289.205 40.9967 289.538 40.7365 289.959 40.5476C290.384 40.3587 290.864 40.2642 291.401 40.2642C292.157 40.2642 292.75 40.4299 293.181 40.7614C293.615 41.0928 293.923 41.5303 294.106 42.0739ZM296.291 48V40.3636H297.464V48H296.291ZM296.888 39.0909C296.659 39.0909 296.462 39.013 296.296 38.8572C296.134 38.7015 296.052 38.5142 296.052 38.2955C296.052 38.0767 296.134 37.8894 296.296 37.7337C296.462 37.5779 296.659 37.5 296.888 37.5C297.116 37.5 297.312 37.5779 297.474 37.7337C297.64 37.8894 297.723 38.0767 297.723 38.2955C297.723 38.5142 297.64 38.7015 297.474 38.8572C297.312 39.013 297.116 39.0909 296.888 39.0909ZM299.674 48V47.1051L304.01 41.5369V41.4574H299.814V40.3636H305.521V41.2983L301.305 46.8267V46.9062H305.66V48H299.674ZM310.73 48.1591C309.995 48.1591 309.36 47.9967 308.826 47.6719C308.296 47.3438 307.887 46.8864 307.598 46.2997C307.313 45.7098 307.171 45.0237 307.171 44.2415C307.171 43.4593 307.313 42.7699 307.598 42.1733C307.887 41.5734 308.288 41.1061 308.801 40.7713C309.318 40.4332 309.922 40.2642 310.611 40.2642C311.009 40.2642 311.402 40.3305 311.789 40.4631C312.177 40.5956 312.53 40.8111 312.848 41.1094C313.166 41.4044 313.42 41.7955 313.609 42.2827C313.798 42.7699 313.892 43.3698 313.892 44.0824V44.5795H308.006V43.5653H312.699C312.699 43.1345 312.613 42.75 312.441 42.4119C312.272 42.0739 312.03 41.8071 311.715 41.6115C311.403 41.416 311.035 41.3182 310.611 41.3182C310.144 41.3182 309.739 41.4342 309.398 41.6662C309.06 41.8949 308.8 42.1932 308.617 42.5611C308.435 42.929 308.344 43.3234 308.344 43.7443V44.4205C308.344 44.9972 308.443 45.486 308.642 45.8871C308.845 46.2848 309.125 46.5881 309.483 46.7969C309.84 47.0024 310.256 47.1051 310.73 47.1051C311.039 47.1051 311.317 47.062 311.566 46.9759C311.818 46.8864 312.035 46.7538 312.217 46.5781C312.399 46.3991 312.54 46.1771 312.64 45.9119L313.773 46.2301C313.654 46.6146 313.453 46.9527 313.171 47.2443C312.89 47.5327 312.542 47.758 312.127 47.9205C311.713 48.0795 311.247 48.1591 310.73 48.1591ZM316.812 48.0795C316.567 48.0795 316.357 47.9917 316.181 47.8161C316.005 47.6404 315.917 47.4299 315.917 47.1847C315.917 46.9394 316.005 46.7289 316.181 46.5533C316.357 46.3776 316.567 46.2898 316.812 46.2898C317.058 46.2898 317.268 46.3776 317.444 46.5533C317.619 46.7289 317.707 46.9394 317.707 47.1847C317.707 47.3471 317.666 47.4962 317.583 47.6321C317.503 47.768 317.396 47.8774 317.26 47.9602C317.127 48.0398 316.978 48.0795 316.812 48.0795ZM316.812 42.4119C316.567 42.4119 316.357 42.3241 316.181 42.1484C316.005 41.9728 315.917 41.7623 315.917 41.517C315.917 41.2718 316.005 41.0613 316.181 40.8857C316.357 40.71 316.567 40.6222 316.812 40.6222C317.058 40.6222 317.268 40.71 317.444 40.8857C317.619 41.0613 317.707 41.2718 317.707 41.517C317.707 41.6795 317.666 41.8286 317.583 41.9645C317.503 42.1004 317.396 42.2098 317.26 42.2926C317.127 42.3722 316.978 42.4119 316.812 42.4119Z" fill="#A3A3A3"/>
<path d="M38.8977 93.0511V88.3636H71.625V93.0511H57.9034V132H52.6193V93.0511H38.8977ZM84.7268 112.312V132H79.6984V88.3636H84.7268V104.386H85.1529C85.92 102.696 87.0705 101.354 88.6046 100.359C90.1529 99.3509 92.2126 98.8466 94.7836 98.8466C97.0137 98.8466 98.9668 99.294 100.643 100.189C102.319 101.07 103.619 102.426 104.542 104.259C105.48 106.077 105.948 108.392 105.948 111.205V132H100.92V111.545C100.92 108.946 100.245 106.936 98.8958 105.516C97.5606 104.081 95.7069 103.364 93.3347 103.364C91.687 103.364 90.2097 103.712 88.9029 104.408C87.6103 105.104 86.5876 106.119 85.8347 107.455C85.0961 108.79 84.7268 110.409 84.7268 112.312ZM129.469 132.682C126.316 132.682 123.596 131.986 121.309 130.594C119.036 129.188 117.282 127.227 116.046 124.713C114.824 122.185 114.213 119.244 114.213 115.892C114.213 112.54 114.824 109.585 116.046 107.028C117.282 104.457 119 102.455 121.202 101.02C123.418 99.571 126.003 98.8466 128.958 98.8466C130.662 98.8466 132.346 99.1307 134.008 99.6989C135.669 100.267 137.182 101.19 138.546 102.469C139.91 103.733 140.996 105.409 141.806 107.497C142.615 109.585 143.02 112.156 143.02 115.21V117.341H117.793V112.994H137.907C137.907 111.148 137.537 109.5 136.799 108.051C136.074 106.602 135.037 105.459 133.688 104.621C132.353 103.783 130.776 103.364 128.958 103.364C126.955 103.364 125.222 103.861 123.759 104.855C122.31 105.835 121.195 107.114 120.414 108.69C119.633 110.267 119.242 111.957 119.242 113.761V116.659C119.242 119.131 119.668 121.226 120.52 122.945C121.387 124.649 122.587 125.949 124.121 126.844C125.655 127.724 127.438 128.165 129.469 128.165C130.79 128.165 131.983 127.98 133.049 127.611C134.128 127.227 135.059 126.659 135.84 125.906C136.621 125.139 137.225 124.187 137.651 123.051L142.509 124.415C141.998 126.062 141.138 127.511 139.931 128.761C138.723 129.997 137.232 130.963 135.456 131.659C133.681 132.341 131.685 132.682 129.469 132.682ZM191.074 144.273V126.972H190.648C190.279 127.568 189.753 128.321 189.071 129.23C188.389 130.125 187.416 130.928 186.152 131.638C184.888 132.334 183.205 132.682 181.102 132.682C178.375 132.682 175.967 131.993 173.879 130.615C171.791 129.223 170.158 127.263 168.979 124.734C167.8 122.192 167.21 119.188 167.21 115.722C167.21 112.284 167.8 109.301 168.979 106.773C170.158 104.244 171.798 102.291 173.901 100.913C176.003 99.5355 178.432 98.8466 181.188 98.8466C183.318 98.8466 185.002 99.2017 186.237 99.9119C187.487 100.608 188.439 101.403 189.092 102.298C189.76 103.179 190.279 103.903 190.648 104.472H191.244V99.2727H196.102V144.273H191.074ZM181.784 128.165C183.801 128.165 185.506 127.639 186.898 126.588C188.29 125.523 189.348 124.053 190.073 122.178C190.797 120.288 191.159 118.108 191.159 115.636C191.159 113.193 190.804 111.055 190.094 109.223C189.384 107.376 188.333 105.942 186.94 104.919C185.548 103.882 183.83 103.364 181.784 103.364C179.654 103.364 177.878 103.911 176.458 105.004C175.051 106.084 173.993 107.554 173.283 109.415C172.587 111.261 172.239 113.335 172.239 115.636C172.239 117.966 172.594 120.082 173.304 121.986C174.029 123.875 175.094 125.381 176.5 126.503C177.921 127.611 179.682 128.165 181.784 128.165ZM226.532 118.619V99.2727H231.56V132H226.532V126.46H226.191C225.424 128.122 224.231 129.536 222.612 130.7C220.992 131.851 218.947 132.426 216.475 132.426C214.43 132.426 212.612 131.979 211.021 131.084C209.43 130.175 208.18 128.811 207.271 126.993C206.362 125.161 205.907 122.852 205.907 120.068V99.2727H210.935V119.727C210.935 122.114 211.603 124.017 212.938 125.438C214.288 126.858 216.006 127.568 218.094 127.568C219.344 127.568 220.616 127.249 221.908 126.609C223.215 125.97 224.309 124.99 225.19 123.669C226.085 122.348 226.532 120.665 226.532 118.619ZM241.37 132V99.2727H246.399V132H241.37ZM243.927 93.8182C242.947 93.8182 242.102 93.4844 241.392 92.8168C240.696 92.1491 240.348 91.3466 240.348 90.4091C240.348 89.4716 240.696 88.669 241.392 88.0014C242.102 87.3338 242.947 87 243.927 87C244.907 87 245.745 87.3338 246.441 88.0014C247.151 88.669 247.507 89.4716 247.507 90.4091C247.507 91.3466 247.151 92.1491 246.441 92.8168C245.745 93.4844 244.907 93.8182 243.927 93.8182ZM269.504 132.682C266.436 132.682 263.794 131.957 261.578 130.509C259.362 129.06 257.657 127.064 256.464 124.521C255.271 121.979 254.674 119.074 254.674 115.807C254.674 112.483 255.285 109.55 256.507 107.007C257.743 104.45 259.461 102.455 261.663 101.02C263.879 99.571 266.464 98.8466 269.419 98.8466C271.72 98.8466 273.794 99.2727 275.64 100.125C277.487 100.977 279 102.17 280.179 103.705C281.358 105.239 282.089 107.028 282.373 109.074H277.345C276.961 107.582 276.109 106.261 274.788 105.111C273.481 103.946 271.72 103.364 269.504 103.364C267.544 103.364 265.825 103.875 264.348 104.898C262.885 105.906 261.741 107.334 260.917 109.18C260.108 111.013 259.703 113.165 259.703 115.636C259.703 118.165 260.101 120.366 260.896 122.241C261.706 124.116 262.842 125.572 264.305 126.609C265.782 127.646 267.515 128.165 269.504 128.165C270.811 128.165 271.997 127.938 273.062 127.483C274.128 127.028 275.03 126.375 275.768 125.523C276.507 124.67 277.032 123.648 277.345 122.455H282.373C282.089 124.386 281.386 126.126 280.264 127.675C279.156 129.209 277.686 130.43 275.853 131.339C274.035 132.234 271.919 132.682 269.504 132.682ZM295.012 120.068L294.926 113.847H295.949L310.267 99.2727H316.489L301.233 114.699H300.807L295.012 120.068ZM290.324 132V88.3636H295.353V132H290.324ZM311.12 132L298.336 115.807L301.915 112.312L317.512 132H311.12ZM341.718 132V88.3636H346.746V104.472H347.172C347.542 103.903 348.053 103.179 348.706 102.298C349.374 101.403 350.326 100.608 351.561 99.9119C352.811 99.2017 354.502 98.8466 356.632 98.8466C359.388 98.8466 361.817 99.5355 363.919 100.913C366.022 102.291 367.662 104.244 368.841 106.773C370.02 109.301 370.61 112.284 370.61 115.722C370.61 119.188 370.02 122.192 368.841 124.734C367.662 127.263 366.029 129.223 363.941 130.615C361.853 131.993 359.445 132.682 356.718 132.682C354.615 132.682 352.932 132.334 351.668 131.638C350.404 130.928 349.431 130.125 348.749 129.23C348.067 128.321 347.542 127.568 347.172 126.972H346.576V132H341.718ZM346.661 115.636C346.661 118.108 347.023 120.288 347.748 122.178C348.472 124.053 349.53 125.523 350.922 126.588C352.314 127.639 354.019 128.165 356.036 128.165C358.138 128.165 359.892 127.611 361.299 126.503C362.719 125.381 363.784 123.875 364.495 121.986C365.219 120.082 365.581 117.966 365.581 115.636C365.581 113.335 365.226 111.261 364.516 109.415C363.82 107.554 362.762 106.084 361.341 105.004C359.935 103.911 358.167 103.364 356.036 103.364C353.99 103.364 352.272 103.882 350.88 104.919C349.488 105.942 348.436 107.376 347.726 109.223C347.016 111.055 346.661 113.193 346.661 115.636ZM378.901 132V99.2727H383.759V104.216H384.1C384.697 102.597 385.776 101.283 387.339 100.274C388.901 99.2656 390.663 98.7614 392.623 98.7614C392.992 98.7614 393.454 98.7685 394.008 98.7827C394.562 98.7969 394.981 98.8182 395.265 98.8466V103.96C395.095 103.918 394.704 103.854 394.093 103.768C393.497 103.669 392.865 103.619 392.197 103.619C390.606 103.619 389.186 103.953 387.936 104.621C386.7 105.274 385.72 106.183 384.995 107.348C384.285 108.499 383.93 109.812 383.93 111.29V132H378.901ZM414.125 132.682C411.171 132.682 408.578 131.979 406.348 130.572C404.132 129.166 402.399 127.199 401.149 124.67C399.913 122.142 399.296 119.187 399.296 115.807C399.296 112.398 399.913 109.422 401.149 106.879C402.399 104.337 404.132 102.362 406.348 100.956C408.578 99.5497 411.171 98.8466 414.125 98.8466C417.08 98.8466 419.665 99.5497 421.881 100.956C424.111 102.362 425.844 104.337 427.08 106.879C428.33 109.422 428.955 112.398 428.955 115.807C428.955 119.187 428.33 122.142 427.08 124.67C425.844 127.199 424.111 129.166 421.881 130.572C419.665 131.979 417.08 132.682 414.125 132.682ZM414.125 128.165C416.369 128.165 418.216 127.589 419.665 126.439C421.114 125.288 422.186 123.776 422.882 121.901C423.578 120.026 423.926 117.994 423.926 115.807C423.926 113.619 423.578 111.581 422.882 109.692C422.186 107.803 421.114 106.276 419.665 105.111C418.216 103.946 416.369 103.364 414.125 103.364C411.881 103.364 410.034 103.946 408.585 105.111C407.136 106.276 406.064 107.803 405.368 109.692C404.672 111.581 404.324 113.619 404.324 115.807C404.324 117.994 404.672 120.026 405.368 121.901C406.064 123.776 407.136 125.288 408.585 126.439C410.034 127.589 411.881 128.165 414.125 128.165ZM443.532 132L433.56 99.2727H438.844L445.918 124.33H446.259L453.248 99.2727H458.617L465.521 124.244H465.861L472.935 99.2727H478.219L468.248 132H463.305L456.146 106.858H455.634L448.475 132H443.532ZM490.496 112.312V132H485.467V99.2727H490.325V104.386H490.751C491.518 102.724 492.683 101.389 494.246 100.381C495.808 99.358 497.825 98.8466 500.297 98.8466C502.513 98.8466 504.451 99.3011 506.113 100.21C507.775 101.105 509.068 102.469 509.991 104.301C510.915 106.119 511.376 108.42 511.376 111.205V132H506.348V111.545C506.348 108.974 505.68 106.972 504.345 105.537C503.01 104.088 501.177 103.364 498.848 103.364C497.243 103.364 495.808 103.712 494.544 104.408C493.294 105.104 492.307 106.119 491.582 107.455C490.858 108.79 490.496 110.409 490.496 112.312ZM553.214 99.2727V103.534H535.572V99.2727H553.214ZM540.856 132V94.7557C540.856 92.8807 541.296 91.3182 542.177 90.0682C543.057 88.8182 544.201 87.8807 545.607 87.2557C547.013 86.6307 548.498 86.3182 550.06 86.3182C551.296 86.3182 552.305 86.4176 553.086 86.6165C553.867 86.8153 554.449 87 554.833 87.1705L553.384 91.517C553.128 91.4318 552.773 91.3253 552.319 91.1974C551.878 91.0696 551.296 91.0057 550.572 91.0057C548.91 91.0057 547.709 91.4247 546.971 92.2628C546.246 93.1009 545.884 94.3295 545.884 95.9489V132H540.856ZM572.809 132.682C569.854 132.682 567.262 131.979 565.032 130.572C562.816 129.166 561.083 127.199 559.833 124.67C558.597 122.142 557.979 119.187 557.979 115.807C557.979 112.398 558.597 109.422 559.833 106.879C561.083 104.337 562.816 102.362 565.032 100.956C567.262 99.5497 569.854 98.8466 572.809 98.8466C575.763 98.8466 578.348 99.5497 580.564 100.956C582.794 102.362 584.527 104.337 585.763 106.879C587.013 109.422 587.638 112.398 587.638 115.807C587.638 119.187 587.013 122.142 585.763 124.67C584.527 127.199 582.794 129.166 580.564 130.572C578.348 131.979 575.763 132.682 572.809 132.682ZM572.809 128.165C575.053 128.165 576.9 127.589 578.348 126.439C579.797 125.288 580.87 123.776 581.566 121.901C582.262 120.026 582.61 117.994 582.61 115.807C582.61 113.619 582.262 111.581 581.566 109.692C580.87 107.803 579.797 106.276 578.348 105.111C576.9 103.946 575.053 103.364 572.809 103.364C570.564 103.364 568.718 103.946 567.269 105.111C565.82 106.276 564.748 107.803 564.052 109.692C563.356 111.581 563.008 113.619 563.008 115.807C563.008 117.994 563.356 120.026 564.052 121.901C564.748 123.776 565.82 125.288 567.269 126.439C568.718 127.589 570.564 128.165 572.809 128.165ZM598.316 99.2727L606.157 112.653L613.998 99.2727H619.794L609.225 115.636L619.794 132H613.998L606.157 119.301L598.316 132H592.521L602.919 115.636L592.521 99.2727H598.316ZM645.044 99.2727H650.072V134.386C650.072 136.403 649.724 138.151 649.028 139.628C648.346 141.105 647.309 142.249 645.917 143.058C644.539 143.868 642.799 144.273 640.697 144.273C640.527 144.273 640.356 144.273 640.186 144.273C640.015 144.273 639.845 144.273 639.674 144.273V139.585C639.845 139.585 640.001 139.585 640.143 139.585C640.285 139.585 640.441 139.585 640.612 139.585C642.146 139.585 643.268 139.131 643.978 138.222C644.689 137.327 645.044 136.048 645.044 134.386V99.2727ZM647.515 93.8182C646.535 93.8182 645.69 93.4844 644.98 92.8168C644.284 92.1491 643.936 91.3466 643.936 90.4091C643.936 89.4716 644.284 88.669 644.98 88.0014C645.69 87.3338 646.535 87 647.515 87C648.495 87 649.333 87.3338 650.029 88.0014C650.74 88.669 651.095 89.4716 651.095 90.4091C651.095 91.3466 650.74 92.1491 650.029 92.8168C649.333 93.4844 648.495 93.8182 647.515 93.8182ZM680.507 118.619V99.2727H685.535V132H680.507V126.46H680.166C679.399 128.122 678.206 129.536 676.586 130.7C674.967 131.851 672.922 132.426 670.45 132.426C668.405 132.426 666.586 131.979 664.996 131.084C663.405 130.175 662.155 128.811 661.246 126.993C660.336 125.161 659.882 122.852 659.882 120.068V99.2727H664.91V119.727C664.91 122.114 665.578 124.017 666.913 125.438C668.263 126.858 669.981 127.568 672.069 127.568C673.319 127.568 674.591 127.249 675.883 126.609C677.19 125.97 678.284 124.99 679.165 123.669C680.059 122.348 680.507 120.665 680.507 118.619ZM695.345 132V99.2727H700.203V104.386H700.629C701.311 102.639 702.412 101.283 703.932 100.317C705.452 99.3366 707.277 98.8466 709.408 98.8466C711.567 98.8466 713.364 99.3366 714.798 100.317C716.247 101.283 717.377 102.639 718.186 104.386H718.527C719.365 102.696 720.622 101.354 722.298 100.359C723.975 99.3509 725.984 98.8466 728.328 98.8466C731.254 98.8466 733.648 99.7628 735.509 101.595C737.369 103.413 738.3 106.247 738.3 110.097V132H733.271V110.097C733.271 107.682 732.611 105.956 731.29 104.919C729.969 103.882 728.413 103.364 726.624 103.364C724.323 103.364 722.54 104.06 721.276 105.452C720.011 106.83 719.379 108.577 719.379 110.693V132H714.266V109.585C714.266 107.724 713.662 106.226 712.455 105.089C711.247 103.939 709.692 103.364 707.788 103.364C706.482 103.364 705.26 103.712 704.124 104.408C703.002 105.104 702.092 106.07 701.396 107.305C700.715 108.527 700.374 109.94 700.374 111.545V132H695.345ZM748.094 144.273V99.2727H752.952V104.472H753.548C753.918 103.903 754.429 103.179 755.082 102.298C755.75 101.403 756.702 100.608 757.937 99.9119C759.187 99.2017 760.878 98.8466 763.008 98.8466C765.764 98.8466 768.193 99.5355 770.295 100.913C772.398 102.291 774.038 104.244 775.217 106.773C776.396 109.301 776.986 112.284 776.986 115.722C776.986 119.188 776.396 122.192 775.217 124.734C774.038 127.263 772.405 129.223 770.317 130.615C768.229 131.993 765.821 132.682 763.094 132.682C760.991 132.682 759.308 132.334 758.044 131.638C756.78 130.928 755.807 130.125 755.125 129.23C754.443 128.321 753.918 127.568 753.548 126.972H753.122V144.273H748.094ZM753.037 115.636C753.037 118.108 753.399 120.288 754.123 122.178C754.848 124.053 755.906 125.523 757.298 126.588C758.69 127.639 760.395 128.165 762.412 128.165C764.514 128.165 766.268 127.611 767.675 126.503C769.095 125.381 770.16 123.875 770.871 121.986C771.595 120.082 771.957 117.966 771.957 115.636C771.957 113.335 771.602 111.261 770.892 109.415C770.196 107.554 769.138 106.084 767.717 105.004C766.311 103.911 764.543 103.364 762.412 103.364C760.366 103.364 758.648 103.882 757.256 104.919C755.864 105.942 754.812 107.376 754.102 109.223C753.392 111.055 753.037 113.193 753.037 115.636ZM808.438 106.602L803.921 107.881C803.637 107.128 803.218 106.396 802.664 105.686C802.124 104.962 801.385 104.365 800.448 103.896C799.51 103.428 798.31 103.193 796.847 103.193C794.844 103.193 793.175 103.655 791.84 104.578C790.519 105.487 789.858 106.645 789.858 108.051C789.858 109.301 790.313 110.288 791.222 111.013C792.131 111.737 793.552 112.341 795.483 112.824L800.341 114.017C803.268 114.727 805.448 115.814 806.883 117.277C808.317 118.726 809.035 120.594 809.035 122.881C809.035 124.756 808.495 126.432 807.415 127.909C806.35 129.386 804.858 130.551 802.941 131.403C801.023 132.256 798.793 132.682 796.251 132.682C792.912 132.682 790.15 131.957 787.962 130.509C785.775 129.06 784.39 126.943 783.807 124.159L788.58 122.966C789.035 124.727 789.894 126.048 791.158 126.929C792.437 127.81 794.106 128.25 796.165 128.25C798.509 128.25 800.37 127.753 801.748 126.759C803.14 125.75 803.836 124.543 803.836 123.136C803.836 122 803.438 121.048 802.643 120.281C801.847 119.5 800.626 118.918 798.978 118.534L793.523 117.256C790.526 116.545 788.324 115.445 786.918 113.953C785.526 112.447 784.83 110.565 784.83 108.307C784.83 106.46 785.349 104.827 786.385 103.406C787.437 101.986 788.864 100.871 790.668 100.061C792.486 99.2514 794.546 98.8466 796.847 98.8466C800.086 98.8466 802.628 99.5568 804.475 100.977C806.336 102.398 807.657 104.273 808.438 106.602ZM847.974 132.682C845.02 132.682 842.427 131.979 840.197 130.572C837.981 129.166 836.248 127.199 834.998 124.67C833.763 122.142 833.145 119.187 833.145 115.807C833.145 112.398 833.763 109.422 834.998 106.879C836.248 104.337 837.981 102.362 840.197 100.956C842.427 99.5497 845.02 98.8466 847.974 98.8466C850.929 98.8466 853.514 99.5497 855.73 100.956C857.96 102.362 859.693 104.337 860.929 106.879C862.179 109.422 862.804 112.398 862.804 115.807C862.804 119.187 862.179 122.142 860.929 124.67C859.693 127.199 857.96 129.166 855.73 130.572C853.514 131.979 850.929 132.682 847.974 132.682ZM847.974 128.165C850.219 128.165 852.065 127.589 853.514 126.439C854.963 125.288 856.035 123.776 856.731 121.901C857.427 120.026 857.775 117.994 857.775 115.807C857.775 113.619 857.427 111.581 856.731 109.692C856.035 107.803 854.963 106.276 853.514 105.111C852.065 103.946 850.219 103.364 847.974 103.364C845.73 103.364 843.883 103.946 842.434 105.111C840.986 106.276 839.913 107.803 839.217 109.692C838.521 111.581 838.173 113.619 838.173 115.807C838.173 117.994 838.521 120.026 839.217 121.901C839.913 123.776 840.986 125.288 842.434 126.439C843.883 127.589 845.73 128.165 847.974 128.165ZM896.669 99.2727L884.567 132H879.453L867.351 99.2727H872.805L881.84 125.352H882.18L891.215 99.2727H896.669ZM916.456 132.682C913.302 132.682 910.582 131.986 908.295 130.594C906.023 129.188 904.268 127.227 903.033 124.713C901.811 122.185 901.2 119.244 901.2 115.892C901.2 112.54 901.811 109.585 903.033 107.028C904.268 104.457 905.987 102.455 908.189 101.02C910.405 99.571 912.99 98.8466 915.945 98.8466C917.649 98.8466 919.332 99.1307 920.994 99.6989C922.656 100.267 924.169 101.19 925.533 102.469C926.896 103.733 927.983 105.409 928.793 107.497C929.602 109.585 930.007 112.156 930.007 115.21V117.341H904.78V112.994H924.893C924.893 111.148 924.524 109.5 923.785 108.051C923.061 106.602 922.024 105.459 920.675 104.621C919.339 103.783 917.763 103.364 915.945 103.364C913.942 103.364 912.209 103.861 910.746 104.855C909.297 105.835 908.182 107.114 907.4 108.69C906.619 110.267 906.229 111.957 906.229 113.761V116.659C906.229 119.131 906.655 121.226 907.507 122.945C908.373 124.649 909.574 125.949 911.108 126.844C912.642 127.724 914.425 128.165 916.456 128.165C917.777 128.165 918.97 127.98 920.035 127.611C921.115 127.227 922.045 126.659 922.827 125.906C923.608 125.139 924.212 124.187 924.638 123.051L929.496 124.415C928.984 126.062 928.125 127.511 926.918 128.761C925.71 129.997 924.219 130.963 922.443 131.659C920.668 132.341 918.672 132.682 916.456 132.682ZM938.256 132V99.2727H943.114V104.216H943.455C944.052 102.597 945.131 101.283 946.694 100.274C948.256 99.2656 950.018 98.7614 951.978 98.7614C952.347 98.7614 952.809 98.7685 953.363 98.7827C953.917 98.7969 954.336 98.8182 954.62 98.8466V103.96C954.449 103.918 954.059 103.854 953.448 103.768C952.851 103.669 952.219 103.619 951.552 103.619C949.961 103.619 948.54 103.953 947.29 104.621C946.054 105.274 945.074 106.183 944.35 107.348C943.64 108.499 943.285 109.812 943.285 111.29V132H938.256ZM992.888 99.2727V103.534H975.928V99.2727H992.888ZM980.871 91.4318H985.9V122.625C985.9 124.045 986.106 125.111 986.518 125.821C986.944 126.517 987.483 126.986 988.137 127.227C988.805 127.455 989.508 127.568 990.246 127.568C990.8 127.568 991.255 127.54 991.61 127.483C991.965 127.412 992.249 127.355 992.462 127.312L993.485 131.83C993.144 131.957 992.668 132.085 992.057 132.213C991.447 132.355 990.672 132.426 989.735 132.426C988.314 132.426 986.922 132.121 985.559 131.51C984.209 130.899 983.087 129.969 982.192 128.719C981.312 127.469 980.871 125.892 980.871 123.989V91.4318ZM1006.78 112.312V132H1001.76V88.3636H1006.78V104.386H1007.21C1007.98 102.696 1009.13 101.354 1010.66 100.359C1012.21 99.3509 1014.27 98.8466 1016.84 98.8466C1019.07 98.8466 1021.02 99.294 1022.7 100.189C1024.38 101.07 1025.68 102.426 1026.6 104.259C1027.54 106.077 1028.01 108.392 1028.01 111.205V132H1022.98V111.545C1022.98 108.946 1022.3 106.936 1020.95 105.516C1019.62 104.081 1017.76 103.364 1015.39 103.364C1013.74 103.364 1012.27 103.712 1010.96 104.408C1009.67 105.104 1008.64 106.119 1007.89 107.455C1007.15 108.79 1006.78 110.409 1006.78 112.312ZM1051.53 132.682C1048.37 132.682 1045.65 131.986 1043.37 130.594C1041.09 129.188 1039.34 127.227 1038.1 124.713C1036.88 122.185 1036.27 119.244 1036.27 115.892C1036.27 112.54 1036.88 109.585 1038.1 107.028C1039.34 104.457 1041.06 102.455 1043.26 101.02C1045.48 99.571 1048.06 98.8466 1051.01 98.8466C1052.72 98.8466 1054.4 99.1307 1056.06 99.6989C1057.73 100.267 1059.24 101.19 1060.6 102.469C1061.97 103.733 1063.05 105.409 1063.86 107.497C1064.67 109.585 1065.08 112.156 1065.08 115.21V117.341H1039.85V112.994H1059.96C1059.96 111.148 1059.59 109.5 1058.86 108.051C1058.13 106.602 1057.09 105.459 1055.74 104.621C1054.41 103.783 1052.83 103.364 1051.01 103.364C1049.01 103.364 1047.28 103.861 1045.82 104.855C1044.37 105.835 1043.25 107.114 1042.47 108.69C1041.69 110.267 1041.3 111.957 1041.3 113.761V116.659C1041.3 119.131 1041.73 121.226 1042.58 122.945C1043.44 124.649 1044.64 125.949 1046.18 126.844C1047.71 127.724 1049.49 128.165 1051.53 128.165C1052.85 128.165 1054.04 127.98 1055.11 127.611C1056.19 127.227 1057.12 126.659 1057.9 125.906C1058.68 125.139 1059.28 124.187 1059.71 123.051L1064.57 124.415C1064.05 126.062 1063.2 127.511 1061.99 128.761C1060.78 129.997 1059.29 130.963 1057.51 131.659C1055.74 132.341 1053.74 132.682 1051.53 132.682ZM1095.83 88.3636V132H1090.8V88.3636H1095.83ZM1115.27 132.767C1113.2 132.767 1111.31 132.376 1109.62 131.595C1107.93 130.8 1106.59 129.656 1105.6 128.165C1104.6 126.659 1104.11 124.841 1104.11 122.71C1104.11 120.835 1104.47 119.315 1105.21 118.151C1105.95 116.972 1106.94 116.048 1108.18 115.381C1109.41 114.713 1110.77 114.216 1112.27 113.889C1113.77 113.548 1115.28 113.278 1116.8 113.08C1118.79 112.824 1120.41 112.632 1121.64 112.504C1122.89 112.362 1123.8 112.128 1124.37 111.801C1124.95 111.474 1125.24 110.906 1125.24 110.097V109.926C1125.24 107.824 1124.67 106.19 1123.52 105.026C1122.38 103.861 1120.65 103.278 1118.34 103.278C1115.94 103.278 1114.06 103.804 1112.69 104.855C1111.33 105.906 1110.37 107.028 1109.82 108.222L1105.04 106.517C1105.9 104.528 1107.03 102.98 1108.45 101.872C1109.89 100.75 1111.45 99.9687 1113.14 99.5284C1114.84 99.0739 1116.52 98.8466 1118.17 98.8466C1119.22 98.8466 1120.43 98.9744 1121.79 99.2301C1123.17 99.4716 1124.5 99.9759 1125.77 100.743C1127.07 101.51 1128.14 102.668 1128.99 104.216C1129.84 105.764 1130.27 107.838 1130.27 110.438V132H1125.24V127.568H1124.99C1124.65 128.278 1124.08 129.038 1123.28 129.848C1122.49 130.658 1121.43 131.347 1120.11 131.915C1118.79 132.483 1117.17 132.767 1115.27 132.767ZM1116.04 128.25C1118.03 128.25 1119.7 127.859 1121.07 127.078C1122.44 126.297 1123.48 125.288 1124.18 124.053C1124.89 122.817 1125.24 121.517 1125.24 120.153V115.551C1125.03 115.807 1124.56 116.041 1123.84 116.254C1123.13 116.453 1122.3 116.631 1121.36 116.787C1120.44 116.929 1119.54 117.057 1118.66 117.17C1117.79 117.27 1117.09 117.355 1116.55 117.426C1115.24 117.597 1114.02 117.874 1112.88 118.257C1111.76 118.626 1110.85 119.187 1110.16 119.94C1109.47 120.679 1109.13 121.687 1109.13 122.966C1109.13 124.713 1109.78 126.034 1111.07 126.929C1112.38 127.81 1114.03 128.25 1116.04 128.25ZM1139.11 132V128.165L1157.69 104.301V103.96H1139.71V99.2727H1164.17V103.278L1146.1 126.972V127.312H1164.76V132H1139.11ZM1176.35 144.273C1175.5 144.273 1174.74 144.202 1174.07 144.06C1173.4 143.932 1172.94 143.804 1172.68 143.676L1173.96 139.244C1175.18 139.557 1176.26 139.67 1177.2 139.585C1178.14 139.5 1178.97 139.081 1179.69 138.328C1180.43 137.589 1181.11 136.389 1181.72 134.727L1182.65 132.17L1170.55 99.2727H1176.01L1185.04 125.352H1185.38L1194.42 99.2727H1199.87L1185.98 136.773C1185.35 138.463 1184.58 139.862 1183.66 140.97C1182.73 142.092 1181.66 142.923 1180.44 143.463C1179.23 144.003 1177.87 144.273 1176.35 144.273ZM1236.94 132.682C1234.21 132.682 1231.81 131.993 1229.72 130.615C1227.63 129.223 1226 127.263 1224.82 124.734C1223.64 122.192 1223.05 119.188 1223.05 115.722C1223.05 112.284 1223.64 109.301 1224.82 106.773C1226 104.244 1227.64 102.291 1229.74 100.913C1231.84 99.5355 1234.27 98.8466 1237.03 98.8466C1239.16 98.8466 1240.84 99.2017 1242.08 99.9119C1243.33 100.608 1244.28 101.403 1244.93 102.298C1245.6 103.179 1246.12 103.903 1246.49 104.472H1246.91V88.3636H1251.94V132H1247.08V126.972H1246.49C1246.12 127.568 1245.59 128.321 1244.91 129.23C1244.23 130.125 1243.25 130.928 1241.99 131.638C1240.73 132.334 1239.04 132.682 1236.94 132.682ZM1237.62 128.165C1239.64 128.165 1241.34 127.639 1242.74 126.588C1244.13 125.523 1245.19 124.053 1245.91 122.178C1246.64 120.288 1247 118.108 1247 115.636C1247 113.193 1246.64 111.055 1245.93 109.223C1245.22 107.376 1244.17 105.942 1242.78 104.919C1241.39 103.882 1239.67 103.364 1237.62 103.364C1235.49 103.364 1233.72 103.911 1232.3 105.004C1230.89 106.084 1229.83 107.554 1229.12 109.415C1228.43 111.261 1228.08 113.335 1228.08 115.636C1228.08 117.966 1228.43 120.082 1229.14 121.986C1229.87 123.875 1230.93 125.381 1232.34 126.503C1233.76 127.611 1235.52 128.165 1237.62 128.165ZM1275.74 132.682C1272.79 132.682 1270.2 131.979 1267.97 130.572C1265.75 129.166 1264.02 127.199 1262.77 124.67C1261.53 122.142 1260.91 119.187 1260.91 115.807C1260.91 112.398 1261.53 109.422 1262.77 106.879C1264.02 104.337 1265.75 102.362 1267.97 100.956C1270.2 99.5497 1272.79 98.8466 1275.74 98.8466C1278.7 98.8466 1281.28 99.5497 1283.5 100.956C1285.73 102.362 1287.46 104.337 1288.7 106.879C1289.95 109.422 1290.57 112.398 1290.57 115.807C1290.57 119.187 1289.95 122.142 1288.7 124.67C1287.46 127.199 1285.73 129.166 1283.5 130.572C1281.28 131.979 1278.7 132.682 1275.74 132.682ZM1275.74 128.165C1277.99 128.165 1279.83 127.589 1281.28 126.439C1282.73 125.288 1283.8 123.776 1284.5 121.901C1285.2 120.026 1285.54 117.994 1285.54 115.807C1285.54 113.619 1285.2 111.581 1284.5 109.692C1283.8 107.803 1282.73 106.276 1281.28 105.111C1279.83 103.946 1277.99 103.364 1275.74 103.364C1273.5 103.364 1271.65 103.946 1270.2 105.111C1268.76 106.276 1267.68 107.803 1266.99 109.692C1266.29 111.581 1265.94 113.619 1265.94 115.807C1265.94 117.994 1266.29 120.026 1266.99 121.901C1267.68 123.776 1268.76 125.288 1270.2 126.439C1271.65 127.589 1273.5 128.165 1275.74 128.165ZM1312.06 144.955C1309.63 144.955 1307.54 144.642 1305.8 144.017C1304.05 143.406 1302.59 142.597 1301.43 141.588C1300.28 140.594 1299.36 139.528 1298.68 138.392L1302.68 135.58C1303.14 136.176 1303.71 136.858 1304.41 137.625C1305.11 138.406 1306.06 139.081 1307.27 139.649C1308.49 140.232 1310.08 140.523 1312.06 140.523C1314.7 140.523 1316.88 139.884 1318.6 138.605C1320.32 137.327 1321.18 135.324 1321.18 132.597V125.949H1320.75C1320.38 126.545 1319.86 127.284 1319.18 128.165C1318.51 129.031 1317.54 129.805 1316.28 130.487C1315.03 131.155 1313.34 131.489 1311.21 131.489C1308.57 131.489 1306.19 130.864 1304.09 129.614C1302 128.364 1300.35 126.545 1299.13 124.159C1297.92 121.773 1297.32 118.875 1297.32 115.466C1297.32 112.114 1297.9 109.195 1299.08 106.709C1300.26 104.209 1301.9 102.277 1304.01 100.913C1306.11 99.5355 1308.54 98.8466 1311.29 98.8466C1313.42 98.8466 1315.11 99.2017 1316.36 99.9119C1317.63 100.608 1318.59 101.403 1319.26 102.298C1319.94 103.179 1320.47 103.903 1320.84 104.472H1321.35V99.2727H1326.21V132.938C1326.21 135.75 1325.57 138.037 1324.29 139.798C1323.03 141.574 1321.32 142.874 1319.18 143.697C1317.05 144.536 1314.67 144.955 1312.06 144.955ZM1311.89 126.972C1313.91 126.972 1315.61 126.51 1317 125.587C1318.39 124.663 1319.45 123.335 1320.18 121.602C1320.9 119.869 1321.26 117.795 1321.26 115.381C1321.26 113.023 1320.91 110.942 1320.2 109.138C1319.49 107.334 1318.44 105.92 1317.05 104.898C1315.65 103.875 1313.93 103.364 1311.89 103.364C1309.76 103.364 1307.98 103.903 1306.56 104.983C1305.16 106.062 1304.1 107.511 1303.39 109.33C1302.69 111.148 1302.34 113.165 1302.34 115.381C1302.34 117.653 1302.7 119.663 1303.41 121.411C1304.13 123.143 1305.2 124.507 1306.6 125.501C1308.03 126.482 1309.79 126.972 1311.89 126.972ZM1339.68 132.341C1338.63 132.341 1337.72 131.964 1336.97 131.212C1336.22 130.459 1335.84 129.557 1335.84 128.506C1335.84 127.455 1336.22 126.553 1336.97 125.8C1337.72 125.047 1338.63 124.67 1339.68 124.67C1340.73 124.67 1341.63 125.047 1342.38 125.8C1343.14 126.553 1343.51 127.455 1343.51 128.506C1343.51 129.202 1343.33 129.841 1342.98 130.423C1342.64 131.006 1342.18 131.474 1341.59 131.83C1341.03 132.17 1340.39 132.341 1339.68 132.341Z" fill="#171717"/>
</g>
<rect x="0.5" y="0.5" width="319" height="169" rx="19.5" stroke="black" stroke-opacity="0.05"/>
<defs>
<clipPath id="clip0_992_10814">
<rect width="320" height="170" rx="20" fill="white"/>
</clipPath>
</defs>
</svg>
