<svg width="112" height="112" viewBox="0 0 112 112" fill="none" xmlns="http://www.w3.org/2000/svg">
<g clip-path="url(#clip0_622_90736)">
<rect width="112" height="112" rx="24" fill="#1E1E1E"/>
<path d="M44.8102 22.0893C46.5887 22.0893 48.0304 23.6767 48.0304 25.6349V42.1823C48.0304 45.3482 48.6465 46.6861 49.8788 48.5598C51.1697 50.3688 53.2234 51.2734 56.0399 51.2734C58.8565 51.2734 60.9395 50.3688 62.2891 48.5598C63.6387 46.6861 64.3135 45.3482 64.3135 42.1823V25.6349C64.3135 23.6767 65.7552 22.0893 67.5337 22.0893L80.5452 17.7383C82.3236 17.7383 83.7653 19.3257 83.7653 21.2839V42.1823C83.7653 48.7079 82.5331 53.1148 80.0686 57.7667C77.6041 62.354 74.2301 65.8106 69.9466 68.1365C65.6631 70.4625 60.8809 71.6254 55.5999 71.6254C50.3188 71.6254 45.6246 70.4625 41.5171 68.1365C37.4683 65.8106 34.2997 62.354 32.0113 57.7667C29.7228 53.1794 28.5786 48.7725 28.5786 42.1823V21.2839C28.5786 19.3257 30.0203 17.7383 31.7988 17.7383L44.8102 22.0893Z" fill="white"/>
<path d="M46.4593 75.7816L42.453 74.2614C41.9118 74.056 41.3432 73.9512 40.7707 73.9512C35.5381 73.9512 33.6248 81.5353 38.1077 84.5069L51.1098 93.1259C54.0625 95.0831 57.7522 95.0997 60.7192 93.1689L74.2412 84.3695C78.6961 81.4705 76.8289 73.9512 71.6543 73.9512C71.0882 73.9512 70.5261 74.0553 69.9911 74.2591L66.0345 75.7671C59.6947 78.1834 52.802 78.1885 46.4593 75.7816Z" fill="#CA0016"/>
</g>
<defs>
<clipPath id="clip0_622_90736">
<rect width="112" height="112" rx="24" fill="white"/>
</clipPath>
</defs>
</svg>
